# xmcd
#
# Track frame offsets: 
#        150
#        30261
#        68975
#        98609
#        134115
#        160326
#        190007
#        233435
#        254888
#        277843
#        314092
#
# Disc length: 4476 seconds
#
# Revision: 0
# Processed by: cddbd v1.5.2PL0 Copyright (c) Steve Scherf et al.
# Submitted via: ExactAudioCopyFreeDBPlugin 1.0
#
DISCID=97117a0b
DTITLE=瑞鸣唱片 - 评弹
DYEAR=2019
DGENRE=Country
TTITLE0=莺莺超琴
TTITLE1=宫怨（长生殿）
TTITLE2=误责贞娘（林冲）
TTITLE3=长亭泣别林冲）
TTITLE4=请宴（西厢）
TTITLE5=狸猫换太子
TTITLE6=庵堂认母（玉蜻蜓）
TTITLE7=义激陈琏（珍珠塔）
TTITLE8=絮阁争宠（长生殿）
TTITLE9=潇湘夜雨（红楼梦）
TTITLE10=情探（玉魁负玉英）
EXTD=
EXTT0=
EXTT1=
EXTT2=
EXTT3=
EXTT4=
EXTT5=
EXTT6=
EXTT7=
EXTT8=
EXTT9=
EXTT10=
PLAYORDER=
